<svg width="224" height="30" viewBox="0 0 224 30" fill="none" xmlns="http://www.w3.org/2000/svg">
<path d="M0.181818 27L4.04545 3.72727H11.3182C12.6212 3.72727 13.697 3.96591 14.5455 4.44318C15.4015 4.91288 16 5.59091 16.3409 6.47727C16.6894 7.35606 16.7576 8.40909 16.5455 9.63636C16.3939 10.5455 16.1174 11.3788 15.7159 12.1364C15.3144 12.8939 14.8068 13.5341 14.1932 14.0568C13.5795 14.5795 12.8788 14.9394 12.0909 15.1364V15.2273C12.9242 15.303 13.6364 15.5985 14.2273 16.1136C14.8182 16.6288 15.2386 17.3106 15.4886 18.1591C15.7386 19.0076 15.7727 19.9697 15.5909 21.0455C15.3939 22.2424 14.9659 23.2879 14.3068 24.1818C13.6553 25.0758 12.8106 25.7689 11.7727 26.2614C10.7424 26.7538 9.56061 27 8.22727 27H0.181818ZM1.04545 26.2727H8.36364C10.0682 26.2727 11.5076 25.7955 12.6818 24.8409C13.8636 23.8788 14.5909 22.6136 14.8636 21.0455C15.0455 19.9697 14.9621 19.0189 14.6136 18.1932C14.2652 17.3674 13.7045 16.7197 12.9318 16.25C12.1591 15.7803 11.2273 15.5455 10.1364 15.5455H2.81818L1.04545 26.2727ZM2.95455 14.8182H10.2727C11.3182 14.8182 12.2273 14.5795 13 14.1023C13.7727 13.625 14.3977 12.9924 14.875 12.2045C15.3523 11.4167 15.6667 10.5606 15.8182 9.63636C16.0909 7.97727 15.8106 6.70076 14.9773 5.80682C14.1515 4.9053 12.8864 4.45454 11.1818 4.45454H4.63636L2.95455 14.8182ZM40.5455 3.72727H41.2727L38.7273 19.1364C38.4697 20.7121 37.875 22.1212 36.9432 23.3636C36.0114 24.5985 34.8561 25.5758 33.4773 26.2955C32.0985 27.0076 30.6061 27.3636 29 27.3636C27.4242 27.3636 26.0644 27.0038 24.9205 26.2841C23.7765 25.5644 22.9394 24.5871 22.4091 23.3523C21.8788 22.1098 21.7424 20.7045 22 19.1364L24.5455 3.72727H25.2727L22.7273 19.1364C22.4924 20.5758 22.6023 21.8598 23.0568 22.9886C23.5114 24.1174 24.25 25.0076 25.2727 25.6591C26.2955 26.3106 27.5379 26.6364 29 26.6364C30.4621 26.6364 31.8333 26.3106 33.1136 25.6591C34.3939 25.0076 35.4697 24.1174 36.3409 22.9886C37.2121 21.8598 37.7652 20.5758 38 19.1364L40.5455 3.72727ZM44.6818 27L48.5455 3.72727H55.8182C57.1212 3.72727 58.197 3.96591 59.0455 4.44318C59.9015 4.91288 60.5 5.59091 60.8409 6.47727C61.1894 7.35606 61.2576 8.40909 61.0455 9.63636C60.8939 10.5455 60.6174 11.3788 60.2159 12.1364C59.8144 12.8939 59.3068 13.5341 58.6932 14.0568C58.0795 14.5795 57.3788 14.9394 56.5909 15.1364V15.2273C57.4242 15.303 58.1364 15.5985 58.7273 16.1136C59.3182 16.6288 59.7386 17.3106 59.9886 18.1591C60.2386 19.0076 60.2727 19.9697 60.0909 21.0455C59.8939 22.2424 59.4659 23.2879 58.8068 24.1818C58.1553 25.0758 57.3106 25.7689 56.2727 26.2614C55.2424 26.7538 54.0606 27 52.7273 27H44.6818ZM45.5455 26.2727H52.8636C54.5682 26.2727 56.0076 25.7955 57.1818 24.8409C58.3636 23.8788 59.0909 22.6136 59.3636 21.0455C59.5455 19.9697 59.4621 19.0189 59.1136 18.1932C58.7652 17.3674 58.2045 16.7197 57.4318 16.25C56.6591 15.7803 55.7273 15.5455 54.6364 15.5455H47.3182L45.5455 26.2727ZM47.4545 14.8182H54.7727C55.8182 14.8182 56.7273 14.5795 57.5 14.1023C58.2727 13.625 58.8977 12.9924 59.375 12.2045C59.8523 11.4167 60.1667 10.5606 60.3182 9.63636C60.5909 7.97727 60.3106 6.70076 59.4773 5.80682C58.6515 4.9053 57.3864 4.45454 55.6818 4.45454H49.1364L47.4545 14.8182ZM65.1818 27L69.0455 3.72727H76.3182C77.6212 3.72727 78.697 3.96591 79.5455 4.44318C80.4015 4.91288 81 5.59091 81.3409 6.47727C81.6894 7.35606 81.7576 8.40909 81.5455 9.63636C81.3939 10.5455 81.1174 11.3788 80.7159 12.1364C80.3144 12.8939 79.8068 13.5341 79.1932 14.0568C78.5795 14.5795 77.8788 14.9394 77.0909 15.1364V15.2273C77.9242 15.303 78.6364 15.5985 79.2273 16.1136C79.8182 16.6288 80.2386 17.3106 80.4886 18.1591C80.7386 19.0076 80.7727 19.9697 80.5909 21.0455C80.3939 22.2424 79.9659 23.2879 79.3068 24.1818C78.6553 25.0758 77.8106 25.7689 76.7727 26.2614C75.7424 26.7538 74.5606 27 73.2273 27H65.1818ZM66.0455 26.2727H73.3636C75.0682 26.2727 76.5076 25.7955 77.6818 24.8409C78.8636 23.8788 79.5909 22.6136 79.8636 21.0455C80.0455 19.9697 79.9621 19.0189 79.6136 18.1932C79.2652 17.3674 78.7045 16.7197 77.9318 16.25C77.1591 15.7803 76.2273 15.5455 75.1364 15.5455H67.8182L66.0455 26.2727ZM67.9545 14.8182H75.2727C76.3182 14.8182 77.2273 14.5795 78 14.1023C78.7727 13.625 79.3977 12.9924 79.875 12.2045C80.3523 11.4167 80.6667 10.5606 80.8182 9.63636C81.0909 7.97727 80.8106 6.70076 79.9773 5.80682C79.1515 4.9053 77.8864 4.45454 76.1818 4.45454H69.6364L67.9545 14.8182ZM85.6818 27L89.5455 3.72727H90.2727L86.5455 26.2727H98.1818L98.0455 27H85.6818ZM103.682 27L107.545 3.72727H119.955L119.818 4.45454H108.136L106.409 15H117.409L117.273 15.7273H106.273L104.545 26.2727H116.545L116.409 27H103.682ZM143.844 0.119999V5.272H146.372V0.119999H143.844ZM131.908 3.512V10.424H134.34V5.784H156.1V10.424H158.628V3.512H131.908ZM142.564 7.224C140.388 11.928 136.932 18.456 134.596 22.296L137.06 22.968C139.332 19.096 142.692 12.632 145.06 7.768L142.564 7.224ZM151.044 13.848C148.964 22.744 142.596 26.104 131.748 27.448C132.196 27.992 132.932 29.048 133.188 29.624C144.228 27.864 151.076 24.152 153.7 14.232L151.044 13.848ZM130.98 12.408V14.68H159.396V12.408H130.98ZM136.452 21.176C143.332 23.16 151.812 26.776 156.068 29.624L157.86 27.64C153.38 24.792 144.804 21.336 138.084 19.48L136.452 21.176ZM170.916 9.08V25.144C170.916 28.28 171.908 29.144 175.3 29.144C176.036 29.144 180.804 29.144 181.572 29.144C185.06 29.144 185.796 27.352 186.148 21.304C185.444 21.144 184.452 20.696 183.876 20.216C183.62 25.752 183.332 26.936 181.444 26.936C180.356 26.936 176.324 26.936 175.524 26.936C173.764 26.936 173.38 26.648 173.38 25.144V9.08H170.916ZM171.172 2.104C175.044 3.48 179.716 5.88 182.18 7.736L183.716 5.624C181.188 3.896 176.548 1.592 172.676 0.279999L171.172 2.104ZM165.572 11.64C165.124 15.8 164.068 20.472 161.924 23.288L164.1 24.6C166.404 21.528 167.396 16.408 167.876 12.12L165.572 11.64ZM184.228 11.672C186.948 15.288 189.348 20.28 190.052 23.64L192.452 22.488C191.652 19.096 189.252 14.264 186.372 10.616L184.228 11.672ZM207.94 0.119999V3.896H210.34V0.119999H207.94ZM195.524 2.296V6.744H197.7V4.248H220.548V6.744H222.82V2.296H195.524ZM197.54 5.944V7.512H207.972V5.944H197.54ZM197.891 9.016V10.456H207.492V9.016H197.891ZM208.58 8.92V10.36H222.052V8.92H208.58ZM196.004 12.376L196.196 14.104C199.332 13.912 203.78 13.624 208.1 13.304L208.132 11.64C203.556 11.928 199.044 12.216 196.004 12.376ZM201.668 6.552V12.792L203.716 12.632V6.552H201.668ZM211.3 4.568C210.788 5.752 209.828 7.064 208.548 8.152C208.996 8.344 209.635 8.76 209.988 9.144C211.428 7.864 212.356 6.424 213.124 4.856L211.3 4.568ZM211.588 6.104L210.724 7.544H220.42V6.104H211.588ZM214.244 6.712V13.08H216.292V6.712H214.244ZM209.635 10.872V13.912H221.092V10.872H219.204V12.472H211.46V10.872H209.635ZM201.411 19.384H217.284V20.92H201.411V19.384ZM201.411 22.328H217.284V23.864H201.411V22.328ZM201.411 16.504H217.284V18.008H201.411V16.504ZM199.076 15.032V25.336H219.716V15.032H199.076ZM211.332 26.392C215.172 27.384 218.948 28.632 221.156 29.592L223.236 28.12C220.772 27.16 216.676 25.912 212.964 25.016L211.332 26.392ZM204.708 25.048C202.628 26.136 198.308 27.32 194.884 27.928C195.332 28.344 196.004 29.112 196.324 29.56C199.78 28.952 204.068 27.704 206.724 26.36L204.708 25.048Z" fill="#545252"/>
</svg>
