<svg xmlns="http://www.w3.org/2000/svg" xmlns:xlink="http://www.w3.org/1999/xlink" viewBox="0 0 491.45 92.1"><defs><style>.cls-1{font-size:53px;}.cls-1,.cls-2{fill:#757b7f;font-family:GenSenRoundedTW-M, GenSenRounded TW;}.cls-2{font-size:21px;letter-spacing:0.05em;}.cls-3{letter-spacing:0.03em;}.cls-4{letter-spacing:0.05em;}.cls-5{letter-spacing:0.03em;}.cls-6{fill:url(#未命名漸層_12);}.cls-7{fill:url(#未命名漸層_12-2);}.cls-8{fill:url(#未命名漸層_12-3);}.cls-9{fill:none;}.cls-10{fill:url(#未命名漸層_12-4);}.cls-11{fill:url(#未命名漸層_12-5);}</style><linearGradient id="未命名漸層_12" x1="3.07" y1="35.27" x2="95.93" y2="-3.11" gradientUnits="userSpaceOnUse"><stop offset="0" stop-color="#9ae7ea"/><stop offset="1" stop-color="#178eea"/></linearGradient><linearGradient id="未命名漸層_12-2" x1="3.17" y1="35.51" x2="96.03" y2="-2.88" xlink:href="#未命名漸層_12"/><linearGradient id="未命名漸層_12-3" x1="5.06" y1="40.09" x2="97.92" y2="1.7" xlink:href="#未命名漸層_12"/><linearGradient id="未命名漸層_12-4" x1="67.8" y1="96.4" x2="-24.78" y2="-33.05" xlink:href="#未命名漸層_12"/><linearGradient id="未命名漸層_12-5" x1="-18.55" y1="75.15" x2="83.31" y2="10.8" xlink:href="#未命名漸層_12"/></defs><g id="圖層_2" data-name="圖層 2"><g id="圖層_1-2" data-name="圖層 1"><text class="cls-1" transform="translate(96.4 48.81)">政央篩檢小隊</text><text class="cls-2" transform="translate(96.52 80.57)">CHENG <tspan class="cls-3" x="82.61" y="0">Y</tspan><tspan class="cls-4" x="94.88" y="0">ANG CHEC</tspan><tspan class="cls-5" x="206.13" y="0">K</tspan><tspan x="220.71" y="0">UP TEAM</tspan></text><path class="cls-6" d="M43.14,18.74l-.23,0Z"/><path class="cls-7" d="M43.14,18.74c.44,0,.9-.07,1.38-.08C44.16,18.66,43.7,18.69,43.14,18.74Z"/><path class="cls-8" d="M42.91,18.77l.23,0c.56,0,1-.08,1.38-.08h.2C50.38,18.68,55,23.43,55,30.29c0,5.64.05,11.77,5.84,12.05,6.2.31,13.47-6.44,16.29-10.8C85,19.4,71.91,6.18,61,2.21,52.89-.74,43.86-.54,35.51,1.65,21.35,5.37,10.43,15,4.42,28.3c-.24.55-.48,1.1-.71,1.65A50.81,50.81,0,0,0,1,38.51C7.49,26.3,34.63,19.68,42.91,18.77Z"/><path class="cls-9" d="M16.52,42.85c.22-.48.38-.81.45-1a3.07,3.07,0,0,0-.17.31S16.68,42.44,16.52,42.85Z"/><path class="cls-10" d="M74.27,50.16A16.5,16.5,0,0,0,68.94,49a32.23,32.23,0,0,0-12.39,3.57c-20.25,10.71-34,8.62-38.63,1.65a12.31,12.31,0,0,1-1.4-11.39C14.16,48,4.43,71.19,15.49,80.9A37,37,0,0,0,28.4,87.73,40.38,40.38,0,0,0,36,89.17a52.45,52.45,0,0,0,20.68-2.56,44.17,44.17,0,0,0,15.64-8.3c4.3-3.71,8.31-9.18,9-15C82,57.84,79.57,52.34,74.27,50.16Z"/><path class="cls-11" d="M16.52,42.85c.16-.41.28-.64.28-.64A3.07,3.07,0,0,1,17,41.9l0-.08,0,.08c4.55-8.54,15.31-7.64,15.31-7.64S31,23.63,38.76,19.91a12.83,12.83,0,0,1,4.15-1.14C34.63,19.68,7.49,26.3,1,38.51a43.68,43.68,0,0,0,.18,19.73A42.48,42.48,0,0,0,15.49,80.9C4.43,71.19,14.16,48,16.52,42.85Z"/></g></g></svg>