<svg xmlns="http://www.w3.org/2000/svg" xmlns:xlink="http://www.w3.org/1999/xlink" viewBox="0 0 591.95 107"><defs><style>.cls-1{font-size:63.06px;}.cls-1,.cls-2{fill:#757b7f;font-family:GenSenRoundedTW-M, GenSenRounded TW;}.cls-2{font-size:24.99px;letter-spacing:0.05em;}.cls-3{letter-spacing:0.03em;}.cls-4{letter-spacing:0.05em;}.cls-5{letter-spacing:0.03em;}.cls-6{fill:url(#未命名漸層_12);}.cls-7{fill:url(#未命名漸層_12-2);}.cls-8{fill:url(#未命名漸層_12-3);}.cls-9{fill:none;}.cls-10{fill:url(#未命名漸層_12-4);}.cls-11{fill:url(#未命名漸層_12-5);}</style><linearGradient id="未命名漸層_12" x1="3.07" y1="43.64" x2="95.93" y2="5.25" gradientUnits="userSpaceOnUse"><stop offset="0" stop-color="#9ae7ea"/><stop offset="1" stop-color="#178eea"/></linearGradient><linearGradient id="未命名漸層_12-2" x1="3.17" y1="43.88" x2="96.03" y2="5.49" xlink:href="#未命名漸層_12"/><linearGradient id="未命名漸層_12-3" x1="5.06" y1="48.46" x2="97.92" y2="10.07" xlink:href="#未命名漸層_12"/><linearGradient id="未命名漸層_12-4" x1="67.8" y1="104.77" x2="-24.78" y2="-24.68" xlink:href="#未命名漸層_12"/><linearGradient id="未命名漸層_12-5" x1="-18.55" y1="83.51" x2="83.31" y2="19.16" xlink:href="#未命名漸層_12"/></defs><g id="圖層_2" data-name="圖層 2"><g id="圖層_1-2" data-name="圖層 1"><text class="cls-1" transform="translate(121.9 55.5)">政央篩檢小隊</text><text class="cls-2" transform="translate(122.04 93.29)">CHENG <tspan class="cls-3" x="98.3" y="0">Y</tspan><tspan class="cls-4" x="112.89" y="0">ANG CHEC</tspan><tspan class="cls-5" x="245.27" y="0">K</tspan><tspan x="262.61" y="0">UP TEAM</tspan></text><path class="cls-6" d="M43.14,27.11l-.23,0Z"/><path class="cls-7" d="M43.14,27.11c.44,0,.9-.07,1.38-.08A13,13,0,0,0,43.14,27.11Z"/><path class="cls-8" d="M42.91,27.14l.23,0A13,13,0,0,1,44.52,27h.2C50.38,27.05,55,31.8,55,38.66c0,5.63.05,11.77,5.84,12.05,6.2.3,13.47-6.45,16.29-10.8C85,27.77,71.91,14.55,61,10.58,52.89,7.63,43.86,7.82,35.51,10,21.35,13.74,10.43,23.38,4.42,36.67c-.24.55-.48,1.1-.71,1.65A51,51,0,0,0,1,46.87C7.49,34.67,34.63,28.05,42.91,27.14Z"/><path class="cls-9" d="M16.52,51.22c.22-.49.38-.81.45-.95a3.07,3.07,0,0,0-.17.31S16.68,50.81,16.52,51.22Z"/><path class="cls-10" d="M74.27,58.53a16.5,16.5,0,0,0-5.33-1.14A32.31,32.31,0,0,0,56.55,61c-20.25,10.72-34,8.63-38.63,1.66a12.31,12.31,0,0,1-1.4-11.39c-2.36,5.15-12.09,28.34-1,38.05A37,37,0,0,0,28.4,96.1,41.19,41.19,0,0,0,36,97.54,52.64,52.64,0,0,0,56.69,95a44.17,44.17,0,0,0,15.64-8.3c4.3-3.71,8.31-9.18,9-15C82,66.21,79.57,60.71,74.27,58.53Z"/><path class="cls-11" d="M16.52,51.22c.16-.41.28-.64.28-.64a3.07,3.07,0,0,1,.17-.31l0-.08,0,.08c4.55-8.55,15.31-7.64,15.31-7.64S31,32,38.76,28.28a12.83,12.83,0,0,1,4.15-1.14C34.63,28.05,7.49,34.67,1,46.87a43.73,43.73,0,0,0,.18,19.74A42.52,42.52,0,0,0,15.49,89.27C4.43,79.56,14.16,56.37,16.52,51.22Z"/></g></g></svg>