<svg xmlns="http://www.w3.org/2000/svg" xmlns:xlink="http://www.w3.org/1999/xlink" viewBox="0 0 873.38 161"><defs><style>.cls-1{fill:url(#未命名漸層_165);}.cls-2{fill:url(#未命名漸層_161);}.cls-3{fill:url(#未命名漸層_161-2);}.cls-4{fill:#514d4e;}</style><linearGradient id="未命名漸層_165" x1="119.54" y1="-27.61" x2="-60.41" y2="163.03" gradientUnits="userSpaceOnUse"><stop offset="0" stop-color="#f9c4cb"/><stop offset="0.08" stop-color="#f9c6cd" stop-opacity="0.98"/><stop offset="0.16" stop-color="#f8cdd3" stop-opacity="0.94"/><stop offset="0.24" stop-color="#f6d9dd" stop-opacity="0.86"/><stop offset="0.32" stop-color="#f3eaeb" stop-opacity="0.75"/><stop offset="0.36" stop-color="#f2f2f2" stop-opacity="0.7"/></linearGradient><linearGradient id="未命名漸層_161" x1="154.8" y1="-88.93" x2="402.14" y2="-88.93" gradientTransform="translate(-49.4 195.28) scale(0.5 1)" gradientUnits="userSpaceOnUse"><stop offset="0" stop-color="#f9c4cb"/><stop offset="0.11" stop-color="#f9c6cd" stop-opacity="0.98"/><stop offset="0.23" stop-color="#f8cdd3" stop-opacity="0.94"/><stop offset="0.35" stop-color="#f6d9dd" stop-opacity="0.86"/><stop offset="0.47" stop-color="#f3eaeb" stop-opacity="0.75"/><stop offset="0.52" stop-color="#f2f2f2" stop-opacity="0.7"/><stop offset="0.67" stop-color="#f5e1e3" stop-opacity="0.81"/><stop offset="0.89" stop-color="#f8ccd2" stop-opacity="0.95"/><stop offset="1" stop-color="#f9c4cb"/></linearGradient><linearGradient id="未命名漸層_161-2" x1="103.99" y1="143.41" x2="20.65" y2="52.03" gradientTransform="matrix(1, 0, 0, 1, 0, 0)" xlink:href="#未命名漸層_161"/></defs><g id="圖層_2" data-name="圖層 2"><g id="圖層_1-2" data-name="圖層 1"><circle class="cls-1" cx="70.25" cy="24.61" r="24.61"/><rect class="cls-2" x="28" y="72.03" width="123.67" height="68.64" rx="34.32" transform="translate(-49.28 101.06) rotate(-47.63)"/><path class="cls-3" d="M135,107.49S116.16,122.38,98,105h0c-.39-.48-.8-1-1.23-1.42L59.67,62.89a34.32,34.32,0,0,0-48.48-2.23h0A34.32,34.32,0,0,0,9,109.14l37.09,40.67A34.32,34.32,0,0,0,94.53,152h0C96.1,150.61,135,107.49,135,107.49Z"/><path class="cls-4" d="M257.24,125.46c0,2.52-1.2,3.79-3.61,3.79q-2.58,0-12-3.87-13.5-5.59-20.56-13.16v16.17c0,2.8-1.14,4.21-3.44,4.21s-3.44-1.41-3.44-4.21V112.48a84.26,84.26,0,0,1-18.66,12.21q-10,4.81-13.5,4.81c-2.24,0-3.36-1.14-3.36-3.44q0-2.58,3.53-3.61a81.66,81.66,0,0,0,29-14.62H184.05c-2.64,0-4-1.06-4-3.18s1.31-3.18,4-3.18h30.1V96.65h-3.52a4.73,4.73,0,0,1-4.47-2.41,2.63,2.63,0,0,1-2.93,2.24c-1.43,0-2.47-1-3.1-3.1l-15.65,3.1-1.63.17a2.38,2.38,0,0,1-2.24-.73,3.82,3.82,0,0,1-.77-2.54q0-2.92,4.64-3.18l5.94-9.2-9.29-7a3,3,0,0,1-1.21-2.59c0-2.12,1-3.18,3.1-3.18a5.25,5.25,0,0,1,2.41.95q2.74-5.85,4.47-10.75,1.11-3,3.53-3a3.48,3.48,0,0,1,2.4.77,2.84,2.84,0,0,1,.86,2.24q0,2.23-6.88,13.76l3.87,3.18,3.1-5.93a17.11,17.11,0,0,1,2.32-3.62,2.91,2.91,0,0,1,2.07-1.11q3.18,0,3.18,3.09c0,.86-.92,2.73-2.75,5.59-.29.46-.55.86-.78,1.21s-.43.66-.6.94q-5.94,9.65-9.2,14.11l3.95-.43,3.7-.52-1.12-3.09a5.42,5.42,0,0,1-.34-1.47c0-1.54.89-2.32,2.67-2.32,1.26,0,2.4,1.24,3.44,3.7l.94,2.24a19.58,19.58,0,0,1,1,2.58V67.24c0-4,1.77-6,5.33-6.2h1.89l.34-2.32A9,9,0,0,1,214.2,55a2.94,2.94,0,0,1,2.53-1.25c2.3,0,3.44,1,3.44,2.93a19.6,19.6,0,0,1-1,4.38h5.42a5,5,0,0,1,4,1.64A7.14,7.14,0,0,1,230,67.41v2a2.64,2.64,0,0,1,2.41-1.21,3.12,3.12,0,0,1,1.8.52q2.33-5,4.3-10.32A4.91,4.91,0,0,1,240,56.14a3.2,3.2,0,0,1,2.06-.77,3.37,3.37,0,0,1,2.32.77,2.87,2.87,0,0,1,.86,2.24q0,2.32-6.62,13.33l4.47,3.7,3-5.77a24.94,24.94,0,0,1,2.5-3.87,2.81,2.81,0,0,1,2.06-1.2q3.18,0,3.18,3.1,0,1.29-4.81,8.94-3.36,5.42-5,7.74t-4,5.42c1-.17,2.38-.37,4.22-.6,2.17-.23,3.81-.43,4.9-.6l-1-3-.35-1.38q0-2.49,2.67-2.49,1.89,0,3.44,3.78,2.84,6.63,2.84,8.17c0,1.89-1,2.84-2.93,2.84q-2.15,0-3.09-3.18-15.22,3.35-18,3.35a2.89,2.89,0,0,1-2.24-.86,3.5,3.5,0,0,1-.77-2.41,2.61,2.61,0,0,1,1.08-2.19,5.64,5.64,0,0,1,3-1l6-9.2a34.58,34.58,0,0,0-3.14-2.5c-1.34-1-2.33-1.72-3-2.23a23.8,23.8,0,0,1-2.58-1.81,3.84,3.84,0,0,1-1.12-1V90.29A7.15,7.15,0,0,1,228.6,95a5,5,0,0,1-4,1.63H221v4.82h30.79q3.87,0,3.87,3.18t-3.87,3.18H223.87q9.72,9,27.95,13.5C255.44,122.19,257.24,123.57,257.24,125.46Zm-46-49.71H224V69c0-1.26-.72-1.92-2.15-2h-8.52a1.88,1.88,0,0,0-2.06,2Zm2.06,15h8.52A1.92,1.92,0,0,0,224,88.65V81.26H211.23v7.39C211.23,89.91,211.92,90.6,213.29,90.72Z"/><path class="cls-4" d="M307.64,79.88H269.8a3.39,3.39,0,0,1-2.37-.69A2.85,2.85,0,0,1,266.7,77c0-1.89,1-2.84,3.1-2.84h4.3v-12q0-3.52,3.18-3.52t3.1,3.52v12h7.39V57.43c0-2.23,1-3.35,3.1-3.35s3.18,1.12,3.18,3.35V62h11.87q3.18,0,3.18,2.84t-3.18,2.84H294.05V74.2h13.59q3.18,0,3.18,2.84T307.64,79.88Zm37.67,3.35q0,3.61-3.44,3.62c-1,0-2.47-1.09-4.47-3.27a3.69,3.69,0,0,1-.73,2.75,3.5,3.5,0,0,1-2.62.86h-14.2q-3.53,0-3.52-3a3.56,3.56,0,0,1,.26-1.46q-3.36,5.07-5,5.07a2.91,2.91,0,0,1-2.76-1.37v36.12q0,7-7.13,7H277.2q-7.06,0-7.06-7V84.7a3.42,3.42,0,0,1,.78-2.5,3.17,3.17,0,0,1,2.32-.77c2.06,0,3.1,1.09,3.1,3.27v9.37a11.21,11.21,0,0,1,1.37-2.32,29.28,29.28,0,0,0,4-7.74c.57-1.78,1.52-2.67,2.84-2.67a2.28,2.28,0,0,1,2.58,2.58A9.25,9.25,0,0,1,286,87.53a22.15,22.15,0,0,1,2.79,2.33,2.39,2.39,0,0,1,.82,1.54,1.65,1.65,0,0,1-.26.86,37.67,37.67,0,0,0,3-6.19q1.55-4.56,3.44-4.56a2.28,2.28,0,0,1,2.58,2.58,12.37,12.37,0,0,1-1.29,4.22H297c3.26,2.46,5.13,4.3,5.59,5.5v-9q0-3.18,3.09-3.18c1.67,0,2.67.66,3,2,.12-.17.35-.55.69-1.12s.92-1.43,1.72-2.58A97.35,97.35,0,0,0,322,57.69a8.52,8.52,0,0,1,1.68-2.88,3.09,3.09,0,0,1,2.28-.9c2.06,0,3.1.91,3.1,2.75a4.75,4.75,0,0,1-.43,1.55,66,66,0,0,0,14.1,21Q345.31,81.77,345.31,83.23Zm-69,12.82v3.61h26.23V95.79a2.19,2.19,0,0,1-2.33,1.46,2.56,2.56,0,0,1-1.46-.69,17.82,17.82,0,0,1-2.15-2.15l-1.55-1.72a23.25,23.25,0,0,1-2.75,4.3A3.28,3.28,0,0,1,290,98.37q-2.58,0-2.58-2.49a6.08,6.08,0,0,1,1.29-2.76,2.5,2.5,0,0,1-1.38.69A7.75,7.75,0,0,1,286,93.3a6,6,0,0,1-2.15-1.9,30.24,30.24,0,0,1-2.93,4.65c-.8,1-1.52,1.46-2.15,1.46A2.25,2.25,0,0,1,276.34,96.05Zm21.93,12.21a15.74,15.74,0,0,1-1.29,4.3c3.21,2.3,5.07,4,5.59,5.25v-13H276.34v12.9l.68-1.12a43.39,43.39,0,0,0,4-7.22q1.45-3.78,3.27-3.78c1.77,0,2.66.8,2.66,2.4a7.86,7.86,0,0,1-1,3l.69.52a18.89,18.89,0,0,1,2.45,2.06,2.46,2.46,0,0,1,.82,1.64l-.17.69a41,41,0,0,0,3.52-8.18,2.66,2.66,0,0,1,.95-1.46,2.53,2.53,0,0,1,1.55-.51Q298.27,105.77,298.27,108.26Zm4.3,13.07V119.7a2.26,2.26,0,0,1-2.41,1.46q-1.38,0-3.87-3.18l-1.12-1.46c-2,4-3.78,6-5.33,6s-2.5-.8-2.5-2.41q0-1,2-2.49a2.22,2.22,0,0,1-1.29.43,3.56,3.56,0,0,1-1.89-.95l-2.24-2.06a44.76,44.76,0,0,1-3.22,4.9c-.83,1-1.54,1.55-2.11,1.55a2.15,2.15,0,0,1-2.23-1.21v1a2.33,2.33,0,0,0,.64,1.85,3.07,3.07,0,0,0,1.85.65h21.24C301.62,123.83,302.45,123,302.57,121.33Zm39.82-19.86v14.36q0,11.1-10.32,11.09-4.49,0-4.48-3.61t3.53-3.52l2.49.08c1.67.12,2.5-1.49,2.5-4.81V104a2.28,2.28,0,0,0-2.58-2.58h-8.26v28q0,3.35-3.18,3.35t-3.18-3.35v-28h-5q-3.87,0-3.87-3.18T313.92,95h21.85Q342.39,95,342.39,101.47Zm-6.62-20.3a87.75,87.75,0,0,1-9.72-16.51c-1.27,3-2.46,5.67-3.57,7.91s-2.51,4.73-4.17,7.48c-.46.8-.89,1.49-1.3,2.07a3.88,3.88,0,0,1,2.84-1Z"/><path class="cls-4" d="M356.92,116.9a2.68,2.68,0,0,1-1.29-1.84,10.1,10.1,0,0,1,.69-4.13,67.55,67.55,0,0,0,3.18-11.44q1-5.68,1.72-13.33a4.25,4.25,0,0,1,1.08-2.63,3.42,3.42,0,0,1,2.54-.9,3.84,3.84,0,0,1,2.88,1,3.7,3.7,0,0,1,.9,2.84,117.71,117.71,0,0,1-1.42,14.06,78.84,78.84,0,0,1-3.05,12.86,7.85,7.85,0,0,1-1.85,3.1,3.63,3.63,0,0,1-2.54,1.12A5.08,5.08,0,0,1,356.92,116.9Zm26.28,12.82c-2.67-.37-4.59-1.18-5.77-2.41s-1.76-3.17-1.76-5.8V75.75a5.44,5.44,0,0,1,.95-3.53,3.62,3.62,0,0,1,2.92-1.11c2.58,0,3.87,1.54,3.87,4.64v42.32a5,5,0,0,0,1.08,3.65A5.79,5.79,0,0,0,388,123.1a75.74,75.74,0,0,0,8.17.3q10,0,11.7-1a4.44,4.44,0,0,0,1.8-2.79,26.52,26.52,0,0,0,.69-6.24,4.06,4.06,0,0,1,.95-2.84,3.57,3.57,0,0,1,2.75-1,3.54,3.54,0,0,1,2.84,1,4.94,4.94,0,0,1,.94,3q.09,7-1.41,10.71a7.57,7.57,0,0,1-4.78,4.77q-3.87,1.22-16.08,1.21A98.5,98.5,0,0,1,383.2,129.72Zm16.47-59.9q-4.31-3-11.79-8a4.44,4.44,0,0,1-1.63-1.64,3.85,3.85,0,0,1-.34-2.06,3.71,3.71,0,0,1,1.2-2.19,3.47,3.47,0,0,1,2.49-1,4,4,0,0,1,1.64.34,54.63,54.63,0,0,1,6.84,3.44q3.82,2.23,7.18,4.65a6.49,6.49,0,0,1,2,1.85,4.1,4.1,0,0,1,.56,2.19,3.84,3.84,0,0,1-.91,2.66,3.46,3.46,0,0,1-2.19,1.21A7.5,7.5,0,0,1,399.67,69.82Zm26.49,42.74c-.64-.57-1.75-3.24-3.36-8a90.38,90.38,0,0,0-5.93-13.33q-3.36-6.2-3.36-7.57,0-3.25,3.87-3.26,2.67,0,9.21,12.38Q433,104.9,433,109.9a3.28,3.28,0,0,1-1.29,2.49,4.65,4.65,0,0,1-3,1.12A3.86,3.86,0,0,1,426.16,112.56Z"/><path class="cls-4" d="M442.84,119.53q0-2.93,4.3-4l7.14-1.9v-23h-6.11q-4,0-4-3.18t4-3.27h6.11V65.52h-7.22q-4,0-4-3.19,0-3.34,4-3.35h20.46q4,0,4,3.35,0,3.19-4,3.19h-6.27V84.09h5.16q4,0,4,3.27t-4,3.18h-5.16v21.25l7.39-2.07q3,0,3,3.27a3.08,3.08,0,0,1-1.54,2.93l-11.62,4c-3.26,1.09-6,1.92-8.17,2.5a25.37,25.37,0,0,1-3.95.86C444,123.23,442.84,122,442.84,119.53Zm20,7.14q0-3.19,3.87-3.19h24.94V112H476q-3.87,0-3.87-3.18T476,105.6h15.74V96.39h-10q-8.61.69-7.92-8V65.6q-.69-8.68,7.92-8h27.52q8.68-.68,8,8V88.39q.68,8.61-8,8h-10.5v9.21h15.92q3.78,0,3.78,3.18T514.66,112H498.74v11.52h18.75q4,0,4,3.19t-4,3.18H466.75Q462.88,129.85,462.88,126.67Zm28.9-62.87H484c-2.29,0-3.41,1.11-3.35,3.35v6.37h11.18Zm0,15.91H480.6v7.22q0,3.36,3.35,3.27h7.83Zm18.58-12.56q0-3.44-3.27-3.35h-8.35v9.72h11.62Zm0,19.78V79.71H498.74V90.2h8.35Q510.44,90.2,510.36,86.93Z"/><path class="cls-4" d="M544.93,116.78q0,4-4.3,11.35-2.24,3.78-4.73,3.78-3.87,0-3.87-3.78c0-.58.74-2.07,2.24-4.47a26,26,0,0,0,2.06-4c.57-1.41.94-2.31,1.12-2.71q1.37-3.18,3.95-3.18Q544.92,113.77,544.93,116.78Zm13.76-10.37c-1,1.06-2.72,1.54-5.07,1.42H543c-2.41,0-4.15-.51-5.21-1.55s-1.53-2.69-1.42-5V63.88q0-3.52,1.55-5.16c1-1.09,2.73-1.57,5.08-1.46h10.58c2.4,0,4.14.53,5.2,1.59s1.53,2.74,1.42,5v37.41C560.24,103.65,559.72,105.35,558.69,106.41Zm-4.82-40.55c0-1.72-.91-2.58-2.75-2.58h-5.59a2.45,2.45,0,0,0-2.75,2.58V79.19h11.09Zm0,19.27H542.78v14.1c0,1.72.92,2.58,2.75,2.58h5.59a2.89,2.89,0,0,0,2-.6,2.83,2.83,0,0,0,.73-2Zm9.21,33.28c1.54,4.3,2.32,7.25,2.32,8.86q0,3.62-3.87,3.61-3.36,0-4.39-5.33l-1.72-6.88-.08-.86a2.78,2.78,0,0,1,.77-2.5,4.12,4.12,0,0,1,2.84-.86Q561.69,114.45,563.08,118.41ZM561.79,81.6a2.25,2.25,0,0,1,.73-1.72,6.92,6.92,0,0,1,2.28-1.29q7.05-2.67,8.6-6.8a29.29,29.29,0,0,0,1.72-8.17h-8.86c-2.35,0-3.53-1.11-3.53-3.35S563.91,57,566.26,57h33.63q7,0,7,6,0,10.66-2.41,15.4t-14.36,4.73q-4,0-4-3.36,0-3.09,3.35-3.09h3.79q3.87,0,5.24-2.67c.92-1.83,1.38-4.56,1.38-8.17,0-1.49-.95-2.24-2.84-2.24H582a27,27,0,0,1-3.1,12.05q-2.4,4.56-9.12,7.65A12,12,0,0,1,565,84.78Q561.79,84.78,561.79,81.6Zm41.28,27.61c-1.09,1.15-2.84,1.63-5.25,1.46H572.28c-2.47,0-4.27-.56-5.42-1.68s-1.69-2.88-1.63-5.29V92.61q0-3.78,1.72-5.51c1.14-1.14,2.92-1.66,5.33-1.54h25.54c2.47,0,4.26.55,5.38,1.67s1.62,2.91,1.5,5.38V103.7C604.7,106.23,604.16,108.06,603.07,109.21Zm-5.16-7.31V94.33a2.36,2.36,0,0,0-.65-1.76,2.76,2.76,0,0,0-1.85-.74H574.52a2.39,2.39,0,0,0-1.77.65,2.82,2.82,0,0,0-.73,1.85v7.57c0,1.54.83,2.38,2.5,2.49h20.89C597,104.39,597.79,103.56,597.91,101.9Zm-15.4,16.42q3.36,7.67,3.36,9,0,3.53-3.87,3.53-2.58,0-4-3.61-3.36-8.59-3.36-9.81c0-2.12,1.21-3.18,3.61-3.18C579.93,114.28,581.37,115.63,582.51,118.32ZM608.4,128q0,3.78-4,3.78c-1.83,0-3.38-1.41-4.64-4.21l-3.87-7a13.32,13.32,0,0,1-1.72-4q0-3.18,3.61-3.18,2.67,0,6.62,6.45T608.4,128Z"/><path class="cls-4" d="M618.89,72.48c0-2.12,1.24-3.18,3.7-3.18h20q3.87,0,3.87,3.18t-3.87,3.19h-20C620.13,75.67,618.89,74.61,618.89,72.48Zm2.5-11.61q0-3.18,3.78-3.18h15.14q3.78,0,3.78,3.18t-3.78,3.18H625.17Q621.39,64.05,621.39,60.87Zm.43,23q0-3,3.52-3h14.54q3.61,0,3.61,3t-3.61,3.09H625.34Q621.82,86.93,621.82,83.84Zm0,11.43c0-2,1.17-3,3.52-3h14.54c2.41,0,3.61,1,3.61,3.1s-1.2,3-3.61,3H625.34Q621.82,98.37,621.82,95.27Zm1.59,32.21c-1.18-1.11-1.65-2.91-1.42-5.37V110.58c-.46-5,1.89-7.31,7-7h8.09q3.87,0,5.67,1.63c1.21,1.09,1.69,2.87,1.47,5.33v11.53c0,2.52-.58,4.35-1.72,5.5s-3,1.66-5.42,1.55H629Q625.17,129.16,623.41,127.48Zm15-6.06V111.36a2.21,2.21,0,0,0-.43-1.55,2,2,0,0,0-1.55-.35h-6.71a2.35,2.35,0,0,0-1.55.39,1.8,1.8,0,0,0-.34,1.51v10.06a2.15,2.15,0,0,0,.43,1.5,1.67,1.67,0,0,0,1.46.39h6.71Q638.49,123.31,638.42,121.42Zm12.12-22.19V83.58q-2.49,4.31-3.95,4.3c-2,0-2.93-.86-2.93-2.58q0-.85,3.27-5.25a49,49,0,0,0,5.16-8.26c.8-1.66,1.81-2.49,3-2.49,1.89,0,2.84.72,2.84,2.15q0,1-2,4.47h13.33l.69-1.54c1.43-3.22,3-4.82,4.65-4.82,1.94,0,2.92.77,2.92,2.32,0,.52-.77,1.86-2.32,4h18.32c1.77,0,2.66.81,2.66,2.41s-.89,2.32-2.66,2.32H676.09v3.79h14.53c1.61,0,2.41.71,2.41,2.15s-.8,2.15-2.41,2.15H676.09v3.87h14.53c1.61,0,2.41.72,2.41,2.15s-.8,2.15-2.41,2.15H676.09v4h18.23c1.78,0,2.67.77,2.67,2.32s-.89,2.41-2.67,2.41H657.08Q650.54,105.68,650.54,99.23Zm-6.27,29.93c0-2,1.54-3,4.64-3.1a55.58,55.58,0,0,0,14-2.23c-5-2.93-7.57-5.1-7.57-6.54s1.06-2.15,3.18-2.15a4.56,4.56,0,0,1,2.75,1,38.32,38.32,0,0,0,8.86,5.33l5.25-2.49,6.19-3.62q.6-.34.6-.6c0-.29-.2-.43-.6-.43H649.68c-1.95,0-2.92-.86-2.92-2.58s1-2.58,2.92-2.58h37.93q5.16,0,5.16,3.1,0,1.55-5.07,5.33a66.59,66.59,0,0,1-9.63,6.19,73.48,73.48,0,0,0,14.53,1.55c3.32,0,5,1.09,5,3.27s-1.41,3.35-4.22,3.35a63.77,63.77,0,0,1-23.3-4.64q-13.08,4.81-22.54,4.81C645.35,132.08,644.27,131.11,644.27,129.16Zm14.27-58.91v-4H648.22q-3.35,0-3.35-2.84t3.35-2.84h10.32V56.92c0-1.9,1-2.84,2.93-2.84s2.92.94,2.92,2.84v3.69h13.07V56.92a2.85,2.85,0,0,1,.73-2.15,3.24,3.24,0,0,1,2.28-.69c2,0,3,.94,3,2.84v3.69h10.84q3.27,0,3.27,2.84t-3.27,2.84H683.48V70c0,1.89-1,2.84-3,2.84s-3-1-3-2.84v-3.7H664.39V70c0,1.89-1,2.84-2.92,2.84S658.54,72,658.54,70.25Zm12,10.4H658.28c-1.14,0-1.72.55-1.72,1.64v2.15H670.5Zm0,12V88.74H656.56v3.87Zm0,4.3H656.56V98.8a2,2,0,0,0,2.15,2.15H670.5Z"/><path class="cls-4" d="M784.8,102.41q0,3.36-4.22,3.36H749.79V128a4.91,4.91,0,0,1-.9,3.27,3.62,3.62,0,0,1-2.88,1q-3.78,0-3.78-4.3V105.77H712a4.86,4.86,0,0,1-3.14-.82,3.1,3.1,0,0,1-1-2.54c0-2.23,1.37-3.35,4.13-3.35h30.19V65.69H716.17q-4,0-4-3.36t4-3.35H775.6c2.8,0,4.21,1.12,4.21,3.35s-1.41,3.36-4.21,3.36H749.79V99.06h30.79Q784.8,99.06,784.8,102.41Zm-63-13.5q-1.38-3.61-3.7-8.69a29.06,29.06,0,0,1-1.21-2.88,6.72,6.72,0,0,1-.43-2,2.42,2.42,0,0,1,1-2,3.9,3.9,0,0,1,2.45-.77,3.67,3.67,0,0,1,2.41.86,8.79,8.79,0,0,1,2,2.58q5.94,11.61,5.93,13.85a3.06,3.06,0,0,1-1.24,2.58,4.52,4.52,0,0,1-2.8.94Q723.47,93.38,721.76,88.91Zm53.32-16.17a2.79,2.79,0,0,1,1.12,2.32q0,2.5-4.91,12.82-2.58,5.33-4.9,5.33a5.16,5.16,0,0,1-3.14-.77,3,3,0,0,1-1-2.5,8.84,8.84,0,0,1,1.29-3.61l5.08-11.78q1.29-2.67,3.35-2.67A5,5,0,0,1,775.08,72.74Z"/><path class="cls-4" d="M863.92,86l-1.63-2.07-62.44,3.53a3.88,3.88,0,0,1-3-.86,3.76,3.76,0,0,1-1-2.84,3.2,3.2,0,0,1,2.75-3.35l4.56-.26,6.54-.09a171.73,171.73,0,0,0,11.18-21.41,9,9,0,0,1,2.19-3.32A4.3,4.3,0,0,1,826,54.25q3.71,0,3.7,3.27,0,2.23-6.62,13l-5.85,9.29q29.92-.69,38.45-1.29l1.63-.08q-6.1-6.8-9.12-9-2.74-1.89-2.75-3.78a3.13,3.13,0,0,1,.78-2.32,3.38,3.38,0,0,1,2.49-.78q2.14,0,13.5,10.75Q873.39,84,873.38,87.1c0,2.3-1.29,3.44-3.87,3.44C868,90.54,866.16,89,863.92,86ZM806,127.87q-2.28-2.24-1.94-7.05v-16.6q-.6-9.81,9.29-9.2h42.23q10.06-.6,9.37,9.2v16.6q.62,9.8-9.37,9.29H813.35Q808.28,130.11,806,127.87ZM857.73,119V106.28q0-4.73-4.56-4.73H816q-4.65,0-4.65,4.56v12.73c0,3.1,1.49,4.64,4.48,4.64H853Q857.72,123.48,857.73,119Z"/></g></g></svg>