<svg xmlns="http://www.w3.org/2000/svg" viewBox="0 0 976 179.92"><defs><style>.cls-1{fill:#ff66ba;}</style></defs><g id="圖層_2" data-name="圖層 2"><g id="圖層_1-2" data-name="圖層 1"><circle class="cls-1" cx="78.5" cy="27.5" r="27.5"/><rect class="cls-1" x="31.28" y="80.49" width="138.2" height="76.7" rx="38.35" transform="translate(-55.07 112.93) rotate(-47.63)"/><path class="cls-1" d="M150.86,120.11s-21.05,16.65-41.36-2.8h0c-.44-.54-.89-1.07-1.37-1.6L66.69,70.28a38.35,38.35,0,0,0-54.18-2.49h0A38.35,38.35,0,0,0,10,122l41.45,45.44a38.35,38.35,0,0,0,54.18,2.49h0C107.39,168.3,150.86,120.11,150.86,120.11Z"/><path class="cls-1" d="M287.47,140.2q0,4.23-4,4.23-2.88,0-13.46-4.32-15.09-6.26-23-14.71v18.07q0,4.71-3.84,4.71t-3.84-4.71V125.69a94.43,94.43,0,0,1-20.86,13.65q-11.15,5.39-15.09,5.38-3.75,0-3.75-3.84c0-1.93,1.31-3.27,3.94-4q18.93-5.47,32.39-16.34H205.68c-3,0-4.42-1.18-4.42-3.56s1.47-3.55,4.42-3.55h33.64V108h-3.95a5.31,5.31,0,0,1-5-2.69q-.48,2.49-3.27,2.49c-1.6,0-2.76-1.15-3.46-3.46l-17.49,3.46-1.83.2a2.7,2.7,0,0,1-2.5-.82,4.26,4.26,0,0,1-.86-2.84c0-2.17,1.73-3.36,5.19-3.55l6.63-10.29-10.38-7.88a3.3,3.3,0,0,1-1.35-2.88c0-2.37,1.16-3.56,3.46-3.56a5.88,5.88,0,0,1,2.69,1.06,128.5,128.5,0,0,0,5-12c.83-2.24,2.15-3.37,3.94-3.37a3.85,3.85,0,0,1,2.69.87,3.2,3.2,0,0,1,1,2.5q0,2.49-7.68,15.37l4.32,3.56,3.46-6.63a19.25,19.25,0,0,1,2.6-4,3.21,3.21,0,0,1,2.3-1.25c2.37,0,3.56,1.16,3.56,3.46,0,1-1,3.05-3.08,6.25l-.86,1.35c-.26.38-.48.73-.67,1q-6.65,10.77-10.29,15.76l4.42-.48,4.14-.57-1.25-3.46a6,6,0,0,1-.39-1.64c0-1.73,1-2.59,3-2.59q2.12,0,3.85,4.13l1,2.5a23.72,23.72,0,0,1,1.16,2.88V75.14q0-6.63,6-6.92h2.12l.38-2.6a10.18,10.18,0,0,1,1.49-4.18,3.31,3.31,0,0,1,2.84-1.39q3.84,0,3.84,3.27a22.2,22.2,0,0,1-1.15,4.9h6.05A5.59,5.59,0,0,1,255.46,70,8,8,0,0,1,257,75.33v2.21a3,3,0,0,1,2.69-1.35,3.6,3.6,0,0,1,2,.58q2.6-5.56,4.8-11.53a5.53,5.53,0,0,1,1.64-2.5,3.53,3.53,0,0,1,2.3-.87,3.73,3.73,0,0,1,2.6.87,3.2,3.2,0,0,1,1,2.5q0,2.6-7.4,14.89l5,4.14L275,77.83a26.89,26.89,0,0,1,2.79-4.33,3.19,3.19,0,0,1,2.31-1.34q3.56,0,3.55,3.46,0,1.44-5.38,10-3.75,6.06-5.53,8.65t-4.47,6.06c1.09-.2,2.66-.42,4.71-.68,2.44-.25,4.26-.48,5.48-.67l-1.15-3.36-.39-1.54c0-1.86,1-2.79,3-2.79q2.11,0,3.85,4.23,3.16,7.41,3.17,9.13c0,2.12-1.09,3.17-3.27,3.17q-2.4,0-3.46-3.55-17,3.75-20.08,3.75a3.17,3.17,0,0,1-2.5-1,3.88,3.88,0,0,1-.87-2.7,2.93,2.93,0,0,1,1.2-2.45,6.46,6.46,0,0,1,3.32-1.1L268,90.51a43.61,43.61,0,0,0-3.51-2.78c-1.51-1.09-2.61-1.93-3.32-2.5a26.53,26.53,0,0,1-2.88-2A4.33,4.33,0,0,1,257,82.06v18.83a8,8,0,0,1-1.54,5.29,5.56,5.56,0,0,1-4.52,1.83H247v5.38h34.41c2.88,0,4.33,1.18,4.33,3.55s-1.45,3.56-4.33,3.56H250.18Q261,130.6,281.41,135.59,287.47,137,287.47,140.2ZM236.05,84.65h14.22V77.06c0-1.41-.8-2.15-2.4-2.21h-9.52a2.11,2.11,0,0,0-2.3,2.21Zm2.3,16.72h9.52a2.12,2.12,0,0,0,2.4-2.3V90.8H236.05v8.27C236.05,100.48,236.82,101.25,238.35,101.37Z"/><path class="cls-1" d="M343.79,89.27H301.5a3.77,3.77,0,0,1-2.64-.77,3.17,3.17,0,0,1-.82-2.41q0-3.16,3.46-3.17h4.8V69.47q0-3.94,3.56-3.94t3.46,3.94V82.92h8.27V64.18q0-3.75,3.46-3.75t3.55,3.75v5.09h13.27c2.36,0,3.55,1.06,3.55,3.18s-1.19,3.17-3.55,3.17H328.6v7.3h15.19q3.56,0,3.55,3.17T343.79,89.27ZM385.88,93q0,4-3.84,4-1.64,0-5-3.65a4.07,4.07,0,0,1-.82,3.07,3.87,3.87,0,0,1-2.93,1H357.43c-2.62,0-3.94-1.12-3.94-3.36a4.17,4.17,0,0,1,.29-1.63c-2.5,3.78-4.35,5.67-5.57,5.67a3.24,3.24,0,0,1-3.08-1.54v40.37q0,7.78-8,7.78h-27.4q-7.87,0-7.88-7.78V94.65a3.82,3.82,0,0,1,.87-2.79,3.49,3.49,0,0,1,2.59-.86c2.31,0,3.46,1.21,3.46,3.65v10.47a12.65,12.65,0,0,1,1.54-2.59,32.37,32.37,0,0,0,4.42-8.65q1-3,3.17-3a2.55,2.55,0,0,1,2.89,2.88,10.34,10.34,0,0,1-1.25,4,26.2,26.2,0,0,1,3.12,2.59,2.71,2.71,0,0,1,.91,1.73,1.86,1.86,0,0,1-.28,1,42.88,42.88,0,0,0,3.36-6.92q1.72-5.09,3.84-5.09A2.55,2.55,0,0,1,333.41,94,13.55,13.55,0,0,1,332,98.68h-.09q5.47,4.14,6.25,6.15V94.74q0-3.55,3.46-3.55c1.85,0,3,.73,3.36,2.21.13-.19.39-.61.77-1.25s1-1.6,1.92-2.88q6.74-9.72,12.21-24.8a9.4,9.4,0,0,1,1.87-3.22,3.46,3.46,0,0,1,2.55-1q3.47,0,3.46,3.08a5.11,5.11,0,0,1-.48,1.73A73.91,73.91,0,0,0,383,88.5Q385.88,91.38,385.88,93ZM308.8,107.33v4h29.32v-4.32a2.46,2.46,0,0,1-2.6,1.63,2.85,2.85,0,0,1-1.63-.77,21.25,21.25,0,0,1-2.41-2.4l-1.73-1.92a26,26,0,0,1-3.07,4.8,3.65,3.65,0,0,1-2.6,1.54q-2.88,0-2.88-2.79a6.76,6.76,0,0,1,1.44-3.07,2.8,2.8,0,0,1-1.54.76,8.64,8.64,0,0,1-1.53-.57,6.84,6.84,0,0,1-2.41-2.12,34.89,34.89,0,0,1-3.26,5.19c-.9,1.09-1.7,1.64-2.41,1.64A2.53,2.53,0,0,1,308.8,107.33ZM333.31,121a17.67,17.67,0,0,1-1.44,4.81q5.38,3.84,6.25,5.86V117.14H308.8v14.41l.77-1.25a48,48,0,0,0,4.42-8.07q1.63-4.23,3.66-4.23c2,0,3,.9,3,2.69a8.83,8.83,0,0,1-1.15,3.37l.77.57a21.67,21.67,0,0,1,2.74,2.31,2.74,2.74,0,0,1,.91,1.83l-.19.76a45.16,45.16,0,0,0,3.94-9.13,2.91,2.91,0,0,1,1.06-1.63,2.84,2.84,0,0,1,1.73-.58Q333.31,118.19,333.31,121Zm4.81,14.61v-1.83a2.54,2.54,0,0,1-2.7,1.64q-1.53,0-4.32-3.56l-1.25-1.63q-3.36,6.72-6,6.73-2.79,0-2.79-2.7c0-.76.74-1.69,2.22-2.78a2.45,2.45,0,0,1-1.45.48,4,4,0,0,1-2.11-1.06l-2.5-2.31a49.59,49.59,0,0,1-3.6,5.48c-.93,1.16-1.72,1.73-2.36,1.73a2.43,2.43,0,0,1-2.5-1.34v1.15a2.62,2.62,0,0,0,.72,2.07,3.54,3.54,0,0,0,2.07.72h23.74Q337.93,138.38,338.12,135.59Zm44.5-22.2v16q0,12.39-11.54,12.4-5,0-5-4t3.95-3.94l2.78.1c1.86.12,2.79-1.67,2.79-5.39V116.18a2.55,2.55,0,0,0-2.88-2.89h-9.23v31.33q0,3.75-3.56,3.75t-3.55-3.75V113.29H350.8q-4.32,0-4.32-3.55t4.32-3.56h24.42Q382.61,106.18,382.62,113.39Zm-7.4-22.68a98.84,98.84,0,0,1-10.87-18.46q-2.12,5.1-4,8.85t-4.67,8.36c-.51.89-1,1.66-1.44,2.3a4.33,4.33,0,0,1,3.17-1.05Z"/><path class="cls-1" d="M398.86,130.64a2.92,2.92,0,0,1-1.44-2.07,11,11,0,0,1,.77-4.61,75,75,0,0,0,3.55-12.78q1.15-6.34,1.92-14.9a4.63,4.63,0,0,1,1.21-2.93,3.82,3.82,0,0,1,2.83-1,4.25,4.25,0,0,1,3.22,1.15,4.11,4.11,0,0,1,1,3.18,129.67,129.67,0,0,1-1.59,15.71,88.4,88.4,0,0,1-3.41,14.37,8.68,8.68,0,0,1-2.06,3.46,4.06,4.06,0,0,1-2.84,1.25A5.64,5.64,0,0,1,398.86,130.64ZM428.22,145c-3-.42-5.13-1.31-6.44-2.69s-2-3.54-2-6.49V84.65a6,6,0,0,1,1.06-3.94,4,4,0,0,1,3.27-1.25q4.32,0,4.32,5.19v47.29q0,2.88,1.2,4.08a6.53,6.53,0,0,0,3.89,1.54,82.77,82.77,0,0,0,9.13.34c7.44,0,11.79-.35,13.08-1.06a5,5,0,0,0,2-3.12,29.07,29.07,0,0,0,.77-7,4.47,4.47,0,0,1,1.06-3.17,4,4,0,0,1,3.08-1.16,3.91,3.91,0,0,1,3.17,1.16,5.48,5.48,0,0,1,1,3.36q.11,7.78-1.58,12a8.48,8.48,0,0,1-5.34,5.33q-4.32,1.35-18,1.34A109.18,109.18,0,0,1,428.22,145ZM446.63,78q-4.81-3.36-13.17-8.94a5,5,0,0,1-1.83-1.82,4.34,4.34,0,0,1-.38-2.31,4.18,4.18,0,0,1,1.34-2.45,3.88,3.88,0,0,1,2.79-1.11,4.42,4.42,0,0,1,1.83.39,58.58,58.58,0,0,1,7.64,3.84q4.27,2.5,8,5.19a7.24,7.24,0,0,1,2.26,2.07,4.53,4.53,0,0,1,.63,2.45,4.37,4.37,0,0,1-1,3,3.82,3.82,0,0,1-2.45,1.34A8.29,8.29,0,0,1,446.63,78Zm29.6,47.77q-1.07-1-3.75-8.94a100.82,100.82,0,0,0-6.63-14.9Q462.1,95,462.1,93.49q0-3.64,4.32-3.65,3,0,10.29,13.84,7.2,13.56,7.21,19.13a3.62,3.62,0,0,1-1.45,2.78,5.16,5.16,0,0,1-3.36,1.25A4.33,4.33,0,0,1,476.23,125.79Z"/><path class="cls-1" d="M494.87,133.57c0-2.18,1.6-3.68,4.81-4.52l8-2.11V101.18h-6.82q-4.51,0-4.52-3.55T500.83,94h6.82V73.21h-8.07q-4.43,0-4.42-3.55,0-3.75,4.42-3.75h22.88c2.94,0,4.42,1.25,4.42,3.75s-1.48,3.55-4.42,3.55h-7V94h5.77q4.51,0,4.51,3.66t-4.51,3.55h-5.77v23.74l8.27-2.3c2.24,0,3.36,1.21,3.36,3.65a3.42,3.42,0,0,1-1.73,3.26l-13,4.43c-3.66,1.21-6.7,2.14-9.14,2.78a27.86,27.86,0,0,1-4.42,1C496.19,137.7,494.87,136.33,494.87,133.57Zm22.4,8q0-3.56,4.32-3.56h27.87V125.11H531.88q-4.33,0-4.33-3.55t4.33-3.56h17.58V107.72H538.31q-9.6.77-8.84-8.94V73.31q-.76-9.7,8.84-8.94h30.76q9.7-.77,8.94,8.94V98.78q.76,9.61-8.94,8.94H557.34V118h17.78q4.23,0,4.23,3.56t-4.23,3.55H557.34V138h21c2.94,0,4.42,1.19,4.42,3.56s-1.48,3.55-4.42,3.55H521.59Q517.27,145.1,517.27,141.55Zm32.29-70.26h-8.75q-3.84,0-3.75,3.75v7.11h12.5Zm0,17.78h-12.5v8.08q0,3.73,3.75,3.65h8.75Zm20.76-14q0-3.84-3.65-3.75h-9.33V82.15h13Zm0,22.11V89.07h-13V100.8h9.33C569.17,100.8,570.38,99.58,570.32,97.15Z"/><path class="cls-1" d="M609,130.5q0,4.51-4.81,12.68-2.5,4.23-5.29,4.23-4.32,0-4.32-4.23c0-.64.83-2.3,2.5-5a28,28,0,0,0,2.3-4.46c.64-1.57,1.06-2.58,1.25-3q1.54-3.56,4.42-3.56Q609,127.13,609,130.5Zm15.37-11.58q-1.73,1.77-5.67,1.58H606.84q-4,0-5.81-1.73t-1.59-5.57V71.39q0-3.94,1.73-5.77T606.84,64h11.82q4,0,5.82,1.78c1.18,1.18,1.71,3.06,1.58,5.62V113.2C626.06,115.82,625.49,117.73,624.33,118.92ZM619,73.6c0-1.92-1-2.88-3.07-2.88h-6.25a2.75,2.75,0,0,0-3.08,2.88V88.5H619Zm0,21.53h-12.4v15.76c0,1.92,1,2.88,3.08,2.88h6.25a2.63,2.63,0,0,0,3.07-2.88Zm10.28,37.19q2.6,7.22,2.6,9.9,0,4-4.33,4c-2.49,0-4.13-2-4.9-6l-1.92-7.69-.1-1a3.11,3.11,0,0,1,.87-2.79,4.57,4.57,0,0,1,3.17-1C626.67,127.9,628.21,129.38,629.23,132.32Zm-1.44-41.13a2.5,2.5,0,0,1,.82-1.92,7.75,7.75,0,0,1,2.55-1.45q7.88-3,9.61-7.59a32.58,32.58,0,0,0,1.92-9.13h-9.9q-3.94,0-3.94-3.75t3.94-3.65h37.58q7.78,0,7.78,6.73,0,11.91-2.69,17.2t-16.05,5.29q-4.51,0-4.51-3.75c0-2.31,1.24-3.46,3.74-3.46h4.23c2.89,0,4.84-1,5.87-3s1.53-5.09,1.53-9.13c0-1.67-1-2.5-3.17-2.5H650.38a30.28,30.28,0,0,1-3.46,13.46q-2.7,5.09-10.19,8.55a13.29,13.29,0,0,1-5.38,1.63Q627.8,94.74,627.79,91.19ZM673.93,122q-1.83,1.92-5.87,1.63H639.52q-4.14,0-6.06-1.87t-1.82-5.91v-12.4q0-4.23,1.92-6.15t6-1.73h28.54q4.14,0,6,1.87t1.68,6v12.4Q675.75,120.12,673.93,122Zm-5.77-8.17v-8.46a2.67,2.67,0,0,0-.72-2,3.17,3.17,0,0,0-2.07-.82H642a2.62,2.62,0,0,0-2,.73,3.09,3.09,0,0,0-.82,2.06v8.46q0,2.59,2.79,2.79h23.35Q668,116.66,668.16,113.87ZM651,132.23q3.74,8.55,3.74,10.09c0,2.62-1.44,3.94-4.32,3.94q-2.88,0-4.52-4-3.75-9.61-3.75-11c0-2.36,1.35-3.55,4-3.55Q649,127.71,651,132.23ZM679.88,143q0,4.23-4.42,4.23-3.08,0-5.19-4.71L666,134.73c-1.28-2.38-1.92-3.85-1.92-4.43q0-3.56,4-3.55,3,0,7.4,7.21T679.88,143Z"/><path class="cls-1" d="M691.61,81q0-3.56,4.13-3.56H718c2.88,0,4.33,1.19,4.33,3.56s-1.45,3.56-4.33,3.56h-22.3Q691.62,84.56,691.61,81Zm2.79-13c0-2.36,1.41-3.55,4.23-3.55h16.91c2.82,0,4.23,1.19,4.23,3.55s-1.41,3.56-4.23,3.56H698.63C695.81,71.58,694.4,70.4,694.4,68Zm.48,25.67q0-3.37,3.94-3.37h16.24q4,0,4,3.37c0,2.3-1.35,3.46-4,3.46H698.82C696.19,97.15,694.88,96,694.88,93.69Zm0,12.78c0-2.24,1.31-3.37,3.94-3.37h16.24c2.69,0,4,1.16,4,3.46s-1.35,3.37-4,3.37H698.82Q694.88,109.93,694.88,106.47Zm1.78,36q-2-1.87-1.59-6V123.58q-.77-8.37,7.88-7.79h9q4.32,0,6.34,1.83c1.34,1.22,1.89,3.2,1.63,6v12.88q0,4.22-1.92,6.15c-1.28,1.28-3.3,1.85-6,1.73h-9Q698.63,144.34,696.66,142.46Zm16.77-6.77V124.44a2.43,2.43,0,0,0-.48-1.73,2.16,2.16,0,0,0-1.73-.38h-7.5a2.62,2.62,0,0,0-1.73.43,2,2,0,0,0-.38,1.68v11.25a2.39,2.39,0,0,0,.48,1.68,1.91,1.91,0,0,0,1.63.43h7.5C712.75,137.8,713.49,137.1,713.43,135.69ZM727,110.89V93.4q-2.79,4.8-4.42,4.8-3.27,0-3.27-2.88c0-.64,1.22-2.6,3.65-5.86a55.88,55.88,0,0,0,5.77-9.23c.89-1.86,2-2.79,3.36-2.79,2.12,0,3.17.8,3.17,2.41,0,.76-.73,2.43-2.21,5h14.9l.77-1.73c1.6-3.58,3.33-5.38,5.19-5.38,2.18,0,3.27.87,3.27,2.6,0,.57-.87,2.08-2.6,4.51H775c2,0,3,.9,3,2.69s-1,2.6-3,2.6H755.52v4.23h16.25c1.79,0,2.69.8,2.69,2.4s-.9,2.4-2.69,2.4H755.52v4.33h16.25c1.79,0,2.69.8,2.69,2.4s-.9,2.4-2.69,2.4H755.52v4.52H775.9c2,0,3,.87,3,2.6s-1,2.69-3,2.69H734.28Q727,118.1,727,110.89Zm-7,33.45c0-2.18,1.73-3.34,5.19-3.46a62.69,62.69,0,0,0,15.67-2.5q-8.46-4.9-8.46-7.31c0-1.6,1.19-2.4,3.56-2.4a5.06,5.06,0,0,1,3.07,1.06,43,43,0,0,0,9.9,6l5.86-2.79,6.92-4c.45-.25.68-.48.68-.67s-.23-.48-.68-.48H726q-3.27,0-3.27-2.88t3.27-2.89H768.4c3.85,0,5.77,1.16,5.77,3.46,0,1.16-1.89,3.14-5.67,6a73.64,73.64,0,0,1-10.77,6.92A82.38,82.38,0,0,0,774,140q5.57,0,5.57,3.65t-4.71,3.75a71.13,71.13,0,0,1-26-5.19q-14.61,5.39-25.19,5.38Q720,147.6,720,144.34Zm16-65.84V74.08H724.38c-2.5,0-3.74-1.06-3.74-3.17s1.24-3.17,3.74-3.17h11.54V63.6q0-3.16,3.26-3.17t3.27,3.17v4.14h14.61V63.6a3.13,3.13,0,0,1,.82-2.4,3.62,3.62,0,0,1,2.55-.77q3.36,0,3.36,3.17v4.14H775.9c2.43,0,3.65,1.05,3.65,3.17s-1.22,3.17-3.65,3.17H763.79v4.13c0,2.12-1.12,3.17-3.36,3.17s-3.37-1-3.37-3.17V74.08H742.45v4.13c0,2.12-1.09,3.17-3.27,3.17S735.92,80.42,735.92,78.5Zm13.36,11.63H735.63q-1.92,0-1.92,1.83v2.4h15.57Zm0,13.36V99.16H733.71v4.33Zm0,4.8H733.71v2.12a2.17,2.17,0,0,0,2.4,2.4h13.17Z"/><path class="cls-1" d="M877,114.45q0,3.73-4.71,3.74H837.89v24.9a5.49,5.49,0,0,1-1,3.65,4.06,4.06,0,0,1-3.22,1.15q-4.23,0-4.23-4.8v-24.9H795.7a5.47,5.47,0,0,1-3.51-.91,3.45,3.45,0,0,1-1.11-2.83q0-3.75,4.62-3.75h33.73V73.41H800.31q-4.42,0-4.42-3.75t4.42-3.75h66.41q4.71,0,4.71,3.75t-4.71,3.75H837.89V110.7H872.3Q877,110.7,877,114.45ZM806.56,99.36q-1.54-4-4.13-9.71a31.66,31.66,0,0,1-1.35-3.22,7.32,7.32,0,0,1-.48-2.26A2.7,2.7,0,0,1,801.7,82a4.29,4.29,0,0,1,2.74-.86,4.05,4.05,0,0,1,2.69,1,9.86,9.86,0,0,1,2.21,2.88q6.64,13,6.64,15.47a3.44,3.44,0,0,1-1.4,2.89,5.06,5.06,0,0,1-3.12,1Q808.48,104.35,806.56,99.36Zm59.59-18.07a3.1,3.1,0,0,1,1.25,2.59q0,2.79-5.48,14.32c-1.92,4-3.75,6-5.48,6a5.77,5.77,0,0,1-3.51-.86,3.32,3.32,0,0,1-1.1-2.79,9.88,9.88,0,0,1,1.44-4l5.67-13.16q1.44-3,3.75-3A5.58,5.58,0,0,1,866.15,81.29Z"/><path class="cls-1" d="M965.43,96.09l-1.83-2.31-69.77,3.94a4.3,4.3,0,0,1-3.32-1,4.17,4.17,0,0,1-1.1-3.17,3.57,3.57,0,0,1,3.07-3.75l5.09-.29,7.31-.09a191.2,191.2,0,0,0,12.49-23.93,9.91,9.91,0,0,1,2.45-3.7A4.75,4.75,0,0,1,923,60.62q4.14,0,4.14,3.66,0,2.49-7.4,14.51l-6.54,10.38q33.45-.77,43-1.44l1.83-.1q-6.82-7.59-10.19-10-3.08-2.11-3.08-4.23a3.52,3.52,0,0,1,.87-2.6,3.81,3.81,0,0,1,2.79-.86q2.4,0,15.09,12Q976,93.89,976,97.34q0,3.84-4.33,3.84C970,101.18,967.93,99.49,965.43,96.09Zm-64.73,46.8q-2.55-2.49-2.17-7.88V116.46q-.66-11,10.39-10.28H956.1q11.25-.68,10.48,10.28V135q.67,11-10.48,10.38H908.92Q903.24,145.39,900.7,142.89ZM958.51,133V118.77c0-3.52-1.7-5.29-5.1-5.29H911.89q-5.19,0-5.19,5.1V132.8q0,5.19,5,5.19h41.52Q958.52,138,958.51,133Z"/></g></g></svg>